<svg width="36" height="36" viewBox="0 0 36 36" fill="none" xmlns="http://www.w3.org/2000/svg">
<path d="M19.5 5.25H21C22.395 5.25 23.0925 5.25 23.6647 5.40333C25.2175 5.81943 26.4306 7.0324 26.8467 8.58531C27 9.15756 27 9.85504 27 11.25H7.5C5.84314 11.25 4.5 9.90686 4.5 8.25C4.5 6.59314 5.84314 5.25 7.5 5.25H12" stroke="white" stroke-width="2.25" stroke-linecap="round" stroke-linejoin="round"/>
<path d="M4.5 8.25V23.25C4.5 27.4926 4.5 29.6139 5.81802 30.9319C7.13604 32.25 9.25736 32.25 13.5 32.25H22.5C26.7426 32.25 28.8639 32.25 30.1819 30.9319C31.5 29.6139 31.5 27.4926 31.5 23.25V20.25C31.5 16.0074 31.5 13.886 30.1819 12.568C28.8639 11.25 26.7426 11.25 22.5 11.25H10.5" stroke="white" stroke-width="2.25" stroke-linecap="round" stroke-linejoin="round"/>
<path d="M31.5 18.75H28.5C27.8025 18.75 27.4537 18.75 27.1677 18.8266C26.3911 19.0347 25.7847 19.6412 25.5766 20.4177C25.5 20.7038 25.5 21.0525 25.5 21.75C25.5 22.4475 25.5 22.7962 25.5766 23.0823C25.7847 23.8588 26.3911 24.4653 27.1677 24.6734C27.4537 24.75 27.8025 24.75 28.5 24.75H31.5" stroke="white" stroke-width="2.25" stroke-linecap="round" stroke-linejoin="round"/>
<path d="M15.75 3.75C18.6495 3.75 21 6.1005 21 9C21 9.8052 20.8188 10.5681 20.4948 11.25H11.0052C10.6813 10.5681 10.5 9.8052 10.5 9C10.5 6.1005 12.8505 3.75 15.75 3.75Z" stroke="white" stroke-width="2.25" stroke-linecap="round" stroke-linejoin="round"/>
</svg>
