<svg width="36" height="36" viewBox="0 0 36 36" fill="none" xmlns="http://www.w3.org/2000/svg">
<path d="M11.5614 21.0336V14.2062M11.5614 14.2062L11.6202 9.16215C11.6202 7.72078 12.5657 6.77424 13.7232 6.72473C15.1335 6.6644 16.1313 7.57146 16.1313 9.01283L16.1635 15.6996L16.1313 6.10644C16.1313 4.66508 17.0977 3.75 18.3718 3.75C19.6461 3.75 20.6212 4.59369 20.6212 6.03505V10.4478L20.6397 15.7644V14.2639C20.6397 14.1715 20.6361 14.079 20.6265 13.9871M11.5614 14.2062L8.80234 16.9667C8.06026 17.8176 7.18549 18.8251 6.90721 19.3311C6.32245 20.3944 6.23511 21.3327 6.58159 22.4381C6.97333 23.4333 7.32528 24.1476 8.0401 25.0792C8.56275 25.7605 9.06876 26.7303 9.59682 27.4074C10.3575 28.3829 10.7731 29.0007 11.233 29.6005C11.2828 29.6655 11.3308 29.7244 11.3773 29.7783C12.0285 30.5337 12.9396 31.024 13.8155 31.5022L14.1505 31.6851C15.2961 32.0566 16.8973 32.3746 19.5094 32.2066C21.4303 32.2086 23.6295 32.4105 25.0851 31.611C25.1479 31.5765 25.2118 31.5438 25.2781 31.5165L25.7307 31.3296C27.85 30.2702 29.3281 28.0138 29.5519 25.6585C29.6538 24.5875 29.613 23.4165 29.6149 22.2364V17.3801C29.3718 15.5451 28.4203 14.3608 24.7644 14.2914M20.6265 13.9871C20.6238 13.9613 20.6206 13.9356 20.617 13.9099M20.6265 13.9871C20.6361 14.0303 20.6107 13.8661 20.617 13.9099M24.7644 14.2914C23.6974 12.4225 20.617 12.1247 20.617 13.9099M24.7644 14.2914C24.9702 14.6521 25.1011 15.0713 25.1205 15.5451V17.2599" stroke="white" stroke-width="2.25" stroke-linecap="round" stroke-linejoin="round"/>
</svg>
