<svg width="36" height="36" viewBox="0 0 36 36" fill="none" xmlns="http://www.w3.org/2000/svg">
<path d="M21.3927 5.39906C19.7934 3.79968 18.9938 3 18 3C17.0062 3 16.2066 3.79968 14.6072 5.39906C13.6475 6.3588 12.6964 6.80439 11.3281 6.80439C10.1334 6.80439 8.43365 6.57267 7.5 7.51416C6.57373 8.44821 6.80442 10.141 6.80442 11.3281C6.80442 12.6964 6.3588 13.6475 5.39902 14.6073C3.79968 16.2066 3.00001 17.0062 3 18C3.00003 18.9936 3.79971 19.7934 5.39907 21.3927C6.47424 22.4679 6.80442 23.1621 6.80442 24.6719C6.80442 25.8666 6.57272 27.5664 7.51424 28.5C8.44827 29.4263 10.141 29.1955 11.3281 29.1955C12.7852 29.1955 13.4869 29.4806 14.5269 30.5205C15.4124 31.4061 16.5994 33 18 33C19.4006 33 20.5877 31.4061 21.4731 30.5205C22.5131 29.4806 23.2148 29.1955 24.6719 29.1955C25.859 29.1955 27.5517 29.4263 28.4857 28.5M28.4857 28.5C29.4273 27.5664 29.1955 25.8666 29.1955 24.6719C29.1955 23.1621 29.5257 22.4679 30.6009 21.3927C32.2004 19.7934 33 18.9936 33 18C33 17.0062 32.2004 16.2066 30.6009 14.6073M28.4857 28.5H28.5" stroke="white" stroke-width="2.25" stroke-linecap="round" stroke-linejoin="round"/>
<path d="M12 15.4616C12 15.4616 15.375 15 18 21C18 21 25.5882 6 33 3" stroke="white" stroke-width="2.25" stroke-linecap="round" stroke-linejoin="round"/>
</svg>
