<svg width="36" height="36" viewBox="0 0 36 36" fill="none" xmlns="http://www.w3.org/2000/svg">
<path d="M6.33333 32.9922V27.6677C6.33333 25.7606 5.8339 24.7692 4.85223 23.1117C3.67545 21.1249 3 18.8062 3 16.3299C3 8.96799 8.96953 3 16.3333 3C23.6971 3 29.6667 8.96799 29.6667 16.3299C29.6667 17.1994 29.6667 17.6343 29.703 17.8781C29.7897 18.4608 30.0617 18.9621 30.3291 19.4809L33 24.6611L30.9009 25.7103C30.2925 26.0143 29.9884 26.1664 29.7765 26.4471C29.5645 26.7276 29.505 27.0444 29.3856 27.6779L29.3739 27.7396C29.1006 29.1909 28.799 30.7929 27.9494 31.8036C27.6494 32.1605 27.2779 32.4504 26.8588 32.6548C26.167 32.9922 25.3165 32.9922 23.6156 32.9922C22.8285 32.9922 22.0392 33.0103 21.2523 32.9913C19.387 32.9458 18 31.3776 18 29.5566" stroke="white" stroke-width="2.25" stroke-linecap="round" stroke-linejoin="round"/>
<path d="M21.582 15.7972C20.9425 15.7972 20.3593 15.5553 19.9176 15.1572M21.582 15.7972C21.582 17.5161 20.5861 19.1487 18.6691 19.1487C16.7521 19.1487 15.7564 20.7811 15.7564 22.5M21.582 15.7972C24.8059 15.7972 24.8059 10.7703 21.582 10.7703C21.289 10.7703 21.0079 10.821 20.7468 10.9144C20.9043 7.16728 15.5023 6.15 14.2788 9.66027M14.2788 9.66027C15.1699 10.2616 15.7564 11.2848 15.7564 12.4459M14.2788 9.66027C11.5011 7.78551 7.79824 11.1496 9.55986 14.1492C6.60339 14.5924 6.91948 19.1487 9.93075 19.1487C10.7752 19.1487 11.5217 18.7266 11.9735 18.0807" stroke="white" stroke-width="2.25" stroke-linecap="round" stroke-linejoin="round"/>
</svg>
