<svg width="24" height="24" viewBox="0 0 24 24" fill="none" xmlns="http://www.w3.org/2000/svg">
<path d="M8 13.4995H16M8 8.49951H12" stroke="#F0682F" stroke-width="1.5" stroke-linecap="round" stroke-linejoin="round"/>
<path d="M6.09881 18.9995C4.7987 18.8716 3.82475 18.4811 3.17157 17.8279C2 16.6564 2 14.7707 2 10.9995V10.4995C2 6.72827 2 4.84266 3.17157 3.67108C4.34315 2.49951 6.22876 2.49951 10 2.49951H14C17.7712 2.49951 19.6569 2.49951 20.8284 3.67108C22 4.84266 22 6.72827 22 10.4995V10.9995C22 14.7707 22 16.6564 20.8284 17.8279C19.6569 18.9995 17.7712 18.9995 14 18.9995C13.4395 19.012 12.9931 19.0546 12.5546 19.1545C11.3562 19.4304 10.2465 20.0436 9.14987 20.5784C7.58729 21.3403 6.806 21.7213 6.31569 21.3646C5.37769 20.666 6.29454 18.5014 6.5 17.4995" stroke="#F0682F" stroke-width="1.5" stroke-linecap="round"/>
</svg>
