<svg width="24" height="24" viewBox="0 0 24 24" fill="none" xmlns="http://www.w3.org/2000/svg">
<path d="M10.5 8.00049H18.5M10.5 12.0005H13M18.5 12.0005H16M10.5 16.0005H13M18.5 16.0005H16" stroke="#F0682F" stroke-width="1.5" stroke-linecap="round" stroke-linejoin="round"/>
<path d="M7 7.5H6C4.11438 7.5 3.17157 7.5 2.58579 8.08579C2 8.67157 2 9.61438 2 11.5V18C2 19.3807 3.11929 20.5 4.5 20.5C5.88071 20.5 7 19.3807 7 18V7.5Z" stroke="#F0682F" stroke-width="1.5" stroke-linecap="round" stroke-linejoin="round"/>
<path d="M16 3.50049H11C10.07 3.50049 9.60504 3.50049 9.22354 3.60271C8.18827 3.88011 7.37962 4.68876 7.10222 5.72403C7 6.10553 7 6.57052 7 7.50049V18.0005C7 19.3812 5.88071 20.5005 4.5 20.5005H16C18.8284 20.5005 20.2426 20.5005 21.1213 19.6218C22 18.7431 22 17.3289 22 14.5005V9.50049C22 6.67206 22 5.25785 21.1213 4.37917C20.2426 3.50049 18.8284 3.50049 16 3.50049Z" stroke="#F0682F" stroke-width="1.5" stroke-linecap="round" stroke-linejoin="round"/>
</svg>
