<svg width="24" height="24" viewBox="0 0 24 24" fill="none" xmlns="http://www.w3.org/2000/svg">
<path d="M2 13C2 9.70017 2 8.05025 2.87868 7.02513C3.75736 6 5.17157 6 8 6H16C18.8284 6 20.2426 6 21.1213 7.02513C22 8.05025 22 9.70017 22 13C22 16.2998 22 17.9497 21.1213 18.9749C20.2426 20 18.8284 20 16 20H8C5.17157 20 3.75736 20 2.87868 18.9749C2 17.9497 2 16.2998 2 13Z" stroke="#F0682F" stroke-width="1.5" stroke-linecap="round" stroke-linejoin="round"/>
<path d="M7.00391 15H7.01289" stroke="#F0682F" stroke-width="1.5" stroke-linecap="round" stroke-linejoin="round"/>
<path d="M6 20.0005V22.0005M18 20.0005V22.0005" stroke="#F0682F" stroke-width="1.5" stroke-linecap="round" stroke-linejoin="round"/>
<path d="M5 6.00049L19 2.00049" stroke="#F0682F" stroke-width="1.5" stroke-linecap="round" stroke-linejoin="round"/>
<path d="M9 11.0005H6" stroke="#F0682F" stroke-width="1.5" stroke-linecap="round" stroke-linejoin="round"/>
<path d="M15 16C16.6569 16 18 14.6569 18 13C18 11.3431 16.6569 10 15 10C13.3431 10 12 11.3431 12 13C12 14.6569 13.3431 16 15 16Z" stroke="#F0682F" stroke-width="1.5" stroke-linecap="round" stroke-linejoin="round"/>
</svg>
