<svg width="24" height="24" viewBox="0 0 24 24" fill="none" xmlns="http://www.w3.org/2000/svg">
<path d="M2 10.0005C2 6.22925 2 4.34364 3.17157 3.17206C4.34315 2.00049 6.22876 2.00049 10 2.00049H14C17.7712 2.00049 19.6569 2.00049 20.8284 3.17206C22 4.34364 22 6.22925 22 10.0005C22 13.7717 22 15.6574 20.8284 16.8289C19.6569 18.0005 17.7712 18.0005 14 18.0005H10C6.22876 18.0005 4.34315 18.0005 3.17157 16.8289C2 15.6574 2 13.7717 2 10.0005Z" stroke="#F0682F" stroke-width="1.5" stroke-linecap="round"/>
<path d="M16 22C14.8233 21.364 13.4571 21 12 21C10.5429 21 9.17669 21.364 8 22" stroke="#F0682F" stroke-width="1.5" stroke-linecap="round"/>
</svg>
