<svg width="28" height="27" viewBox="0 0 28 27" fill="none" xmlns="http://www.w3.org/2000/svg">
<path d="M24.7819 14.3726C24.9313 12.4752 24.5719 10.5724 23.7407 8.86025C22.3649 10.1674 20.7387 11.1824 18.96 11.8439C19.103 13.5995 19.0238 15.3661 18.7242 17.1017C20.8887 16.5566 22.9395 15.6326 24.7819 14.3726ZM16.9734 17.4554C17.3253 15.773 17.4484 14.0507 17.3392 12.3353C16.2903 12.5855 15.1962 12.7177 14.0713 12.7177C12.9463 12.7177 11.8522 12.5855 10.8033 12.3353C10.6967 14.0507 10.8197 15.7726 11.1691 17.4554C13.0927 17.7503 15.0499 17.7503 16.9734 17.4554ZM11.6165 19.1842C13.2473 19.3771 14.8952 19.3771 16.5261 19.1842C15.9656 20.9884 15.1381 22.6987 14.0713 24.258C13.0044 22.6987 12.1769 20.9885 11.6165 19.1842ZM9.41835 17.1028C9.11716 15.3666 9.03793 13.5991 9.18257 11.8428C7.40347 11.1814 5.7768 10.1665 4.40074 8.85915C3.56977 10.5717 3.21073 12.475 3.36063 14.3726C5.203 15.6326 7.25389 16.5577 9.41835 17.1028ZM24.3798 16.5762C23.8235 18.4613 22.7614 20.158 21.3089 21.4822C19.8564 22.8063 18.0689 23.7072 16.1405 24.0872C17.1062 22.4634 17.8433 20.7141 18.3308 18.8889C20.4568 18.4433 22.4985 17.6631 24.3798 16.5773V16.5762ZM3.76279 16.5762C5.61603 17.646 7.65216 18.436 9.8117 18.8889C10.2993 20.7141 11.0363 22.4634 12.0021 24.0872C10.0738 23.7073 8.28641 22.8065 6.8339 21.4826C5.38139 20.1587 4.31926 18.4622 3.76279 16.5773V16.5762ZM16.1405 2.99976C18.8704 3.53634 21.286 5.11063 22.8791 7.39155C21.7031 8.57971 20.2993 9.51811 18.7517 10.1505C18.3348 7.62493 17.4491 5.19966 16.1405 2.99976ZM14.0713 2.83008C15.6793 5.17923 16.7357 7.86131 17.1618 10.676C16.1735 10.9294 15.1378 11.065 14.0713 11.065C13.0047 11.065 11.969 10.9305 10.9807 10.676C11.4068 7.8613 12.4633 5.17922 14.0713 2.83008ZM12.0021 2.99976C10.6934 5.19965 9.80774 7.62492 9.39081 10.1505C7.84328 9.51814 6.43942 8.57973 5.26345 7.39155C6.8567 5.11096 9.27225 3.53596 12.0021 2.99976Z" fill="#F0682F"/>
</svg>
