<svg width="37" height="36" viewBox="0 0 37 36" fill="none" xmlns="http://www.w3.org/2000/svg">
<path d="M31.7461 25.2531C30.7616 19.3299 27.6968 14.9192 25.0325 12.3285C24.2572 11.5746 23.8696 11.1977 23.0132 10.8489C22.1569 10.5 21.4208 10.5 19.9487 10.5H16.7153C15.2432 10.5 14.5072 10.5 13.6509 10.8489C12.7945 11.1977 12.4069 11.5746 11.6316 12.3285C8.96726 14.9192 5.90244 19.3299 4.91793 25.2531C4.18542 29.6601 8.25093 33 12.7945 33H23.8696C28.4131 33 32.4787 29.6601 31.7461 25.2531Z" stroke="white" stroke-width="2.25" stroke-linecap="round" stroke-linejoin="round"/>
<path d="M11.217 6.66431C10.9075 6.21387 10.459 5.60249 11.3855 5.46308C12.3379 5.31977 13.3268 5.97171 14.2949 5.95831C15.1706 5.94619 15.6167 5.55778 16.0954 5.00322C16.5994 4.41925 17.3798 3 18.332 3C19.2842 3 20.0647 4.41925 20.5687 5.00322C21.0473 5.55778 21.4934 5.94619 22.3691 5.95831C23.3372 5.97171 24.3262 5.31977 25.2785 5.46308C26.2051 5.60249 25.7566 6.21387 25.4471 6.66431L24.0478 8.70096C23.4493 9.57219 23.15 10.0078 22.5236 10.2539C21.8974 10.5 21.088 10.5 19.4693 10.5H17.1947C15.5761 10.5 14.7667 10.5 14.1404 10.2539C13.5141 10.0078 13.2148 9.57219 12.6162 8.70096L11.217 6.66431Z" stroke="white" stroke-width="2.25" stroke-linejoin="round"/>
<path d="M20.7711 19.3779C20.4468 18.1807 18.7962 17.1004 16.8149 17.9086C14.8335 18.7167 14.5188 21.3169 17.5158 21.5932C18.8703 21.718 19.7535 21.4483 20.562 22.2114C21.3707 22.9743 21.5208 25.0962 19.4538 25.668C17.3868 26.2398 15.3401 25.3464 15.1172 24.0775M18.0936 16.489V17.6296M18.0936 25.8439V26.989" stroke="white" stroke-width="2.25" stroke-linecap="round" stroke-linejoin="round"/>
</svg>
