<svg width="48" height="48" viewBox="0 0 48 48" fill="none" xmlns="http://www.w3.org/2000/svg">
<path d="M9.02622 24C8.2236 23.8832 7.58672 23.6886 7.02642 23.3652C6.10626 22.834 5.34218 22.0698 4.81092 21.1496C4 19.7451 4 17.8594 4 14.0881C4 10.3167 4 8.43098 4.81092 7.02642C5.34218 6.10626 6.10626 5.34218 7.02642 4.81092C8.43098 4 10.3167 4 14.0881 4C17.8594 4 19.7451 4 21.1496 4.81092C22.0698 5.34218 22.834 6.10626 23.3652 7.02642C23.6886 7.58672 23.8832 8.2236 24 9.02622" stroke="#F0682F" stroke-width="3" stroke-linecap="round"/>
<path d="M19.0434 34C18.2325 33.8834 17.5904 33.6886 17.026 33.3626C16.106 32.8316 15.342 32.0676 14.8108 31.1474C14 29.743 14 27.8576 14 24.0868C14 20.3158 14 18.4304 14.8108 17.026C15.342 16.106 16.106 15.342 17.026 14.8108C18.4304 14 20.3158 14 24.0868 14C27.8576 14 29.743 14 31.1474 14.8108C32.0676 15.342 32.8316 16.106 33.3626 17.026C33.6886 17.5904 33.8834 18.2325 34 19.0434" stroke="#F0682F" stroke-width="3" stroke-linecap="round"/>
<path d="M24 34C24 30.2616 24 28.3924 24.8038 27C25.3304 26.0878 26.0878 25.3304 27 24.8038C28.3924 24 30.2616 24 34 24C37.7384 24 39.6076 24 41 24.8038C41.9122 25.3304 42.6696 26.0878 43.1962 27C44 28.3924 44 30.2616 44 34C44 37.7384 44 39.6076 43.1962 41C42.6696 41.9122 41.9122 42.6696 41 43.1962C39.6076 44 37.7384 44 34 44C30.2616 44 28.3924 44 27 43.1962C26.0878 42.6696 25.3304 41.9122 24.8038 41C24 39.6076 24 37.7384 24 34Z" stroke="#F0682F" stroke-width="3"/>
</svg>
