<svg width="48" height="48" viewBox="0 0 48 48" fill="none" xmlns="http://www.w3.org/2000/svg">
<path d="M16.7513 6C16.3234 6.15986 15.9027 6.33424 15.4896 6.52252M41.4352 32.6022C41.6396 32.1598 41.828 31.7084 41.9998 31.249M36.9974 38.7294C37.3408 38.4088 37.6728 38.0762 37.9924 37.732M30.5376 42.7446C30.9258 42.5982 31.308 42.44 31.684 42.2702M24.3118 43.9878C23.85 44.0038 23.385 44.0038 22.923 43.9878M15.5744 42.2808C15.936 42.4434 16.3034 42.5956 16.6763 42.7366M9.34488 37.8416C9.61826 38.1314 9.90036 38.4128 10.1908 38.6856M5.26518 31.329C5.41494 31.7244 5.57712 32.1138 5.75122 32.4966M4.00972 25.0106C3.99674 24.5944 3.99678 24.1756 4.00972 23.7588M5.25068 17.4743C5.3978 17.0833 5.55706 16.6983 5.72798 16.3196M9.31182 10.9585C9.60114 10.6503 9.90028 10.3515 10.2088 10.0625" stroke="#F0682F" stroke-width="3" stroke-linecap="round" stroke-linejoin="round"/>
<path d="M27 24C27 25.6568 25.6568 27 24 27C22.3432 27 21 25.6568 21 24C21 22.3432 22.3432 21 24 21M27 24C27 22.3432 25.6568 21 24 21M27 24H32M24 21V12" stroke="#F0682F" stroke-width="3" stroke-linecap="round"/>
<path d="M44 24C44 12.9543 35.0456 4 24 4" stroke="#F0682F" stroke-width="3" stroke-linecap="round"/>
</svg>
