<svg width="37" height="36" viewBox="0 0 37 36" fill="none" xmlns="http://www.w3.org/2000/svg">
<path d="M19.418 28.5V33" stroke="white" stroke-width="2.25" stroke-linecap="round" stroke-linejoin="round"/>
<path d="M16.418 33H22.418" stroke="white" stroke-width="2.25" stroke-linecap="round" stroke-linejoin="round"/>
<path d="M20.918 24C15.119 24 10.418 19.299 10.418 13.5C10.418 7.70101 15.119 3 20.918 3C26.717 3 31.418 7.70101 31.418 13.5C31.418 19.299 26.717 24 20.918 24Z" stroke="white" stroke-width="2.25" stroke-linecap="round"/>
<path d="M13.418 6C14.3994 6.05775 14.9065 6.53848 15.7782 7.45951C17.3526 9.12309 18.927 9.2619 19.9766 8.70738C21.551 7.8756 20.228 6.52831 22.0758 5.79613C23.2802 5.31892 23.4482 4.02039 22.7778 3" stroke="white" stroke-width="2.25" stroke-linejoin="round"/>
<path d="M30.668 15C28.418 15 28.0187 16.8702 26.168 16.5C22.418 15.75 21.3554 16.5883 21.3554 18.3766C21.3554 20.1648 21.3554 20.1648 20.5755 21.506C20.0682 22.3784 19.8909 23.2506 20.9021 24" stroke="white" stroke-width="2.25" stroke-linejoin="round"/>
<path d="M10.418 3C7.64093 5.69993 5.91797 9.4623 5.91797 13.6238C5.91797 21.8397 12.6337 28.5 20.918 28.5C25.0062 28.5 28.7123 26.8781 31.418 24.2475" stroke="white" stroke-width="2.25" stroke-linecap="round"/>
</svg>
