<svg width="36" height="36" viewBox="0 0 36 36" fill="none" xmlns="http://www.w3.org/2000/svg">
<path d="M22.4688 10.5232C22.4688 10.5232 23.2188 11.2732 23.9688 12.7732C23.9688 12.7732 26.351 9.02319 28.4687 8.27319" stroke="white" stroke-width="2.25" stroke-linecap="round" stroke-linejoin="round"/>
<path d="M14.9923 3.03186C11.2446 2.87319 8.34918 3.30492 8.34918 3.30492C6.52091 3.43565 3.01719 4.46063 3.01722 10.4467C3.01725 16.3818 2.97846 23.6988 3.01722 26.6157C3.01722 28.3979 4.12065 32.5548 7.93989 32.7776C12.5822 33.0485 20.9441 33.1061 24.7807 32.7776C25.8077 32.7197 29.227 31.9134 29.6597 28.1933C30.1081 24.3393 30.0188 21.6609 30.0188 21.0234" stroke="white" stroke-width="2.25" stroke-linecap="round" stroke-linejoin="round"/>
<path d="M33.0027 10.5232C33.0027 14.6653 29.6416 18.0233 25.4955 18.0233C21.3493 18.0233 17.9883 14.6653 17.9883 10.5232C17.9883 6.38106 21.3493 3.02319 25.4955 3.02319C29.6416 3.02319 33.0027 6.38106 33.0027 10.5232Z" stroke="white" stroke-width="2.25" stroke-linecap="round"/>
<path d="M10.4688 19.5234H16.4687" stroke="white" stroke-width="2.25" stroke-linecap="round"/>
<path d="M10.4688 25.5234H22.4687" stroke="white" stroke-width="2.25" stroke-linecap="round"/>
</svg>
