<svg width="28" height="27" viewBox="0 0 28 27" fill="none" xmlns="http://www.w3.org/2000/svg">
<path d="M14.0732 8.72266C13.4157 8.72266 12.7851 8.98384 12.3202 9.44876C11.8553 9.91367 11.5941 10.5442 11.5941 11.2017C11.5941 11.8592 11.8553 12.4898 12.3202 12.9547C12.7851 13.4196 13.4157 13.6808 14.0732 13.6808C14.7307 13.6808 15.3612 13.4196 15.8261 12.9547C16.291 12.4898 16.5522 11.8592 16.5522 11.2017C16.5522 10.5442 16.291 9.91367 15.8261 9.44876C15.3612 8.98384 14.7307 8.72266 14.0732 8.72266Z" fill="#F0682F"/>
<path fill-rule="evenodd" clip-rule="evenodd" d="M2.50423 5.82955C2.50423 4.68809 3.42974 3.76367 4.57011 3.76367H23.5762C24.7166 3.76367 25.6421 4.68919 25.6421 5.82955V16.5721C25.6421 17.7136 24.7166 18.638 23.5762 18.638H4.57011C4.29881 18.638 4.03017 18.5846 3.77953 18.4808C3.52889 18.377 3.30114 18.2248 3.10931 18.0329C2.91747 17.8411 2.7653 17.6134 2.66148 17.3627C2.55766 17.1121 2.50423 16.8434 2.50423 16.5721V5.82955ZM9.9414 11.2009C9.9414 10.105 10.3767 9.05411 11.1516 8.27925C11.9264 7.50439 12.9774 7.06908 14.0732 7.06908C15.169 7.06908 16.2199 7.50439 16.9948 8.27925C17.7696 9.05411 18.2049 10.105 18.2049 11.2009C18.2049 12.2967 17.7696 13.3476 16.9948 14.1224C16.2199 14.8973 15.169 15.3326 14.0732 15.3326C12.9774 15.3326 11.9264 14.8973 11.1516 14.1224C10.3767 13.3476 9.9414 12.2967 9.9414 11.2009ZM21.5103 10.3745C21.2912 10.3745 21.081 10.4616 20.926 10.6165C20.7711 10.7715 20.684 10.9817 20.684 11.2009V11.2097C20.684 11.6658 21.0542 12.036 21.5103 12.036H21.5192C21.7383 12.036 21.9485 11.949 22.1035 11.794C22.2585 11.639 22.3455 11.4288 22.3455 11.2097V11.2009C22.3455 10.9817 22.2585 10.7715 22.1035 10.6165C21.9485 10.4616 21.7383 10.3745 21.5192 10.3745H21.5103ZM5.80964 11.2009C5.80964 10.9817 5.8967 10.7715 6.05167 10.6165C6.20664 10.4616 6.41683 10.3745 6.63599 10.3745H6.64481C6.86397 10.3745 7.07416 10.4616 7.22913 10.6165C7.3841 10.7715 7.47116 10.9817 7.47116 11.2009V11.2097C7.47116 11.4288 7.3841 11.639 7.22913 11.794C7.07416 11.949 6.86397 12.036 6.64481 12.036H6.63599C6.41683 12.036 6.20664 11.949 6.05167 11.794C5.8967 11.639 5.80964 11.4288 5.80964 11.2097V11.2009Z" fill="#F0682F"/>
<path d="M3.33058 20.291C3.11142 20.291 2.90123 20.3781 2.74626 20.533C2.59129 20.688 2.50423 20.8982 2.50423 21.1174C2.50423 21.3365 2.59129 21.5467 2.74626 21.7017C2.90123 21.8567 3.11142 21.9437 3.33058 21.9437C9.28032 21.9437 15.0428 22.7392 20.5187 24.23C21.8299 24.587 23.1631 23.6152 23.1631 22.2247V21.1174C23.1631 20.8982 23.076 20.688 22.921 20.533C22.7661 20.3781 22.5559 20.291 22.3367 20.291H3.33058Z" fill="#F0682F"/>
</svg>
