<svg width="28" height="27" viewBox="0 0 28 27" fill="none" xmlns="http://www.w3.org/2000/svg">
<path d="M14.0705 1.09766C12.0702 1.09721 10.1256 1.75657 8.53816 2.97354C6.95067 4.19051 5.80894 5.89714 5.28991 7.82891C4.77088 9.76068 4.90354 11.8097 5.66733 13.6584C6.43112 15.5071 7.78339 17.0523 9.51454 18.0544C10.2704 18.4929 10.743 19.165 10.764 19.8426C10.7698 20.0241 10.8352 20.1987 10.9501 20.3393C11.065 20.4799 11.223 20.5787 11.3997 20.6205C11.7876 20.712 12.182 20.7836 12.5831 20.8354C12.9389 20.8805 13.2441 20.5952 13.2441 20.236V15.1005C12.896 15.0622 12.551 14.9992 12.2118 14.9121C12.1066 14.885 12.0079 14.8375 11.9211 14.7723C11.8344 14.7071 11.7613 14.6254 11.7061 14.5319C11.6509 14.4385 11.6146 14.3351 11.5994 14.2276C11.5842 14.1201 11.5903 14.0107 11.6173 13.9056C11.6444 13.8005 11.6919 13.7017 11.7571 13.6149C11.8223 13.5282 11.904 13.4551 11.9975 13.3999C12.0909 13.3447 12.1944 13.3085 12.3018 13.2932C12.4093 13.278 12.5187 13.2841 12.6238 13.3112C13.5728 13.5557 14.5682 13.5557 15.5172 13.3112C15.6233 13.2806 15.7346 13.2716 15.8443 13.2847C15.954 13.2979 16.06 13.3329 16.1559 13.3877C16.2518 13.4425 16.3358 13.516 16.4029 13.6039C16.4699 13.6917 16.5186 13.7921 16.5462 13.8991C16.5738 14.0061 16.5796 14.1175 16.5633 14.2268C16.5471 14.3361 16.509 14.441 16.4515 14.5354C16.394 14.6297 16.3181 14.7116 16.2284 14.7761C16.1387 14.8406 16.037 14.8865 15.9292 14.911C15.59 14.9985 15.245 15.0618 14.8969 15.1005V20.2349C14.8969 20.5952 15.2021 20.8805 15.5579 20.8354C15.959 20.7836 16.3534 20.712 16.7413 20.6205C16.918 20.5787 17.076 20.4799 17.1909 20.3393C17.3058 20.1987 17.3712 20.0241 17.377 19.8426C17.399 19.165 17.8706 18.4929 18.6265 18.0544C20.3576 17.0523 21.7099 15.5071 22.4737 13.6584C23.2375 11.8097 23.3701 9.76068 22.8511 7.82891C22.3321 5.89714 21.1903 4.19051 19.6028 2.97354C18.0154 1.75657 16.0708 1.09721 14.0705 1.09766Z" fill="#F0682F"/>
<path fill-rule="evenodd" clip-rule="evenodd" d="M10.7803 22.1966C10.8005 22.09 10.8415 21.9884 10.9011 21.8976C10.9606 21.8068 11.0374 21.7286 11.1271 21.6676C11.2169 21.6065 11.3178 21.5637 11.424 21.5416C11.5303 21.5195 11.6399 21.5186 11.7465 21.5389C13.2827 21.8303 14.86 21.8303 16.3962 21.5389C16.5041 21.5151 16.6157 21.5132 16.7244 21.5334C16.8331 21.5535 16.9366 21.5952 17.0288 21.6561C17.1211 21.717 17.2002 21.7957 17.2615 21.8877C17.3228 21.9797 17.365 22.083 17.3856 22.1916C17.4063 22.3001 17.4049 22.4118 17.3817 22.5198C17.3584 22.6279 17.3137 22.7301 17.2502 22.8206C17.1867 22.9111 17.1057 22.9879 17.012 23.0465C16.9183 23.1051 16.8138 23.1443 16.7047 23.1618C14.9647 23.492 13.1781 23.492 11.438 23.1618C11.2229 23.1209 11.0327 22.9963 10.9094 22.8153C10.7861 22.6344 10.7396 22.4118 10.7803 22.1966ZM11.5967 24.8894C11.608 24.7815 11.6404 24.6768 11.6921 24.5814C11.7439 24.486 11.8139 24.4017 11.8982 24.3334C11.9825 24.265 12.0794 24.214 12.1835 24.1831C12.2875 24.1522 12.3966 24.1421 12.5046 24.1534C13.5463 24.2623 14.5964 24.2623 15.6381 24.1534C15.8561 24.1306 16.0742 24.1954 16.2445 24.3334C16.4148 24.4714 16.5232 24.6714 16.546 24.8894C16.5688 25.1074 16.5041 25.3256 16.366 25.4958C16.228 25.6661 16.028 25.7745 15.81 25.7973C14.6541 25.9183 13.4886 25.9183 12.3327 25.7973C12.2248 25.7861 12.1201 25.7536 12.0247 25.7019C11.9293 25.6502 11.845 25.5801 11.7766 25.4958C11.7083 25.4115 11.6572 25.3146 11.6264 25.2105C11.5955 25.1065 11.5854 24.9974 11.5967 24.8894Z" fill="#F0682F"/>
</svg>
