<svg width="33" height="32" viewBox="0 0 33 32" fill="none" xmlns="http://www.w3.org/2000/svg">
<path d="M5.83331 14.666V19.9993C5.83331 24.3991 5.83331 26.5989 7.20015 27.9659C8.56698 29.3327 10.7669 29.3327 15.1666 29.3327H17.8333C22.233 29.3327 24.4329 29.3327 25.7998 27.9659C27.1666 26.5989 27.1666 24.3991 27.1666 19.9993V14.666" stroke="#F0682F" stroke-width="2" stroke-linecap="round" stroke-linejoin="round"/>
<path d="M4.5 11.9987C4.5 11.0018 4.5 10.5033 4.76795 10.132C4.94348 9.8888 5.19596 9.68682 5.5 9.54639C5.96411 9.33203 6.58717 9.33203 7.83333 9.33203H25.1667C26.4128 9.33203 27.0359 9.33203 27.5 9.54639C27.804 9.68682 28.0565 9.8888 28.232 10.132C28.5 10.5033 28.5 11.0018 28.5 11.9987C28.5 12.9956 28.5 13.494 28.232 13.8654C28.0565 14.1086 27.804 14.3106 27.5 14.451C27.0359 14.6654 26.4128 14.6654 25.1667 14.6654H7.83333C6.58717 14.6654 5.96411 14.6654 5.5 14.451C5.19596 14.3106 4.94348 14.1086 4.76795 13.8654C4.5 13.494 4.5 12.9956 4.5 11.9987Z" stroke="#F0682F" stroke-width="2" stroke-linejoin="round"/>
<path d="M8.5 5.04696C8.5 3.732 9.56599 2.66602 10.8809 2.66602H11.3571C14.1975 2.66602 16.5 4.96855 16.5 7.80887V9.33268H12.7857C10.4188 9.33268 8.5 7.4139 8.5 5.04696Z" stroke="#F0682F" stroke-width="2" stroke-linejoin="round"/>
<path d="M24.5 5.04696C24.5 3.732 23.434 2.66602 22.1191 2.66602H21.6428C18.8025 2.66602 16.5 4.96855 16.5 7.80887V9.33268H20.2143C22.5812 9.33268 24.5 7.4139 24.5 5.04696Z" stroke="#F0682F" stroke-width="2" stroke-linejoin="round"/>
<path d="M16.5 14.666V29.3327" stroke="#F0682F" stroke-width="2" stroke-linecap="round" stroke-linejoin="round"/>
</svg>
