<svg width="41" height="41" viewBox="0 0 41 41" fill="none" xmlns="http://www.w3.org/2000/svg">
<path d="M7.54175 18.5435V25.2101C7.54175 30.7098 7.54175 33.4596 9.2503 35.1683C10.9588 36.8768 13.7087 36.8768 19.2084 36.8768H22.5417C28.0414 36.8768 30.7912 36.8768 32.4999 35.1683C34.2084 33.4596 34.2084 30.7098 34.2084 25.2101V18.5435" stroke="black" stroke-width="2.5" stroke-linecap="round" stroke-linejoin="round"/>
<path d="M5.875 15.2098C5.875 13.9636 5.875 13.3406 6.20993 12.8765C6.42935 12.5724 6.74495 12.3199 7.125 12.1444C7.70513 11.8765 8.48397 11.8765 10.0417 11.8765H31.7083C33.266 11.8765 34.0448 11.8765 34.625 12.1444C35.005 12.3199 35.3207 12.5724 35.54 12.8765C35.875 13.3406 35.875 13.9636 35.875 15.2098C35.875 16.4559 35.875 17.079 35.54 17.5431C35.3207 17.8471 35.005 18.0996 34.625 18.2751C34.0448 18.5431 33.266 18.5431 31.7083 18.5431H10.0417C8.48397 18.5431 7.70513 18.5431 7.125 18.2751C6.74495 18.0996 6.42935 17.8471 6.20993 17.5431C5.875 17.079 5.875 16.4559 5.875 15.2098Z" stroke="black" stroke-width="2.5" stroke-linejoin="round"/>
<path d="M10.875 6.51964C10.875 4.87594 12.2075 3.54346 13.8512 3.54346H14.4464C17.9968 3.54346 20.875 6.42162 20.875 9.97202V11.8768H16.2321C13.2735 11.8768 10.875 9.47831 10.875 6.51964Z" stroke="black" stroke-width="2.5" stroke-linejoin="round"/>
<path d="M30.875 6.51964C30.875 4.87594 29.5425 3.54346 27.8988 3.54346H27.3035C23.7532 3.54346 20.875 6.42162 20.875 9.97202V11.8768H25.5178C28.4765 11.8768 30.875 9.47831 30.875 6.51964Z" stroke="black" stroke-width="2.5" stroke-linejoin="round"/>
<path d="M20.875 18.5435V36.8768" stroke="black" stroke-width="2.5" stroke-linecap="round" stroke-linejoin="round"/>
</svg>
