<svg width="41" height="41" viewBox="0 0 41 41" fill="none" xmlns="http://www.w3.org/2000/svg">
<path d="M9.80469 18.5468L7.35408 24.0606C4.26229 31.0171 2.71639 34.4953 4.40361 36.1826C6.09081 37.8698 9.56906 36.324 16.5256 33.2321L22.0395 30.7815C26.2351 28.9168 28.333 27.9843 28.6668 26.1865C29.0006 24.3886 27.3773 22.7653 24.1308 19.5188L21.0675 16.4555C17.8208 13.2089 16.1975 11.5856 14.3997 11.9194C12.6018 12.2532 11.6694 14.351 9.80469 18.5468Z" stroke="black" stroke-width="2.5" stroke-linecap="round" stroke-linejoin="round"/>
<path d="M11.2083 17.71L22.875 29.3766M7.875 26.0433L14.5417 32.71" stroke="black" stroke-width="2.5" stroke-linecap="round" stroke-linejoin="round"/>
<path d="M27.0415 13.5435L32.0415 8.54346" stroke="black" stroke-width="2.5" stroke-linecap="round" stroke-linejoin="round"/>
<path d="M24.037 3.54346C24.702 4.65457 25.2342 7.54346 22.0415 10.2101" stroke="black" stroke-width="2.5" stroke-linecap="round" stroke-linejoin="round"/>
<path d="M37.0417 16.548C35.9305 15.8829 33.0417 15.3508 30.375 18.5435" stroke="black" stroke-width="2.5" stroke-linecap="round" stroke-linejoin="round"/>
<path d="M30.3765 3.54346V3.57679" stroke="black" stroke-width="2.5" stroke-linecap="round" stroke-linejoin="round"/>
<path d="M37.043 10.21V10.2433" stroke="black" stroke-width="2.5" stroke-linecap="round" stroke-linejoin="round"/>
<path d="M35.3765 21.8765V21.9098" stroke="black" stroke-width="2.5" stroke-linecap="round" stroke-linejoin="round"/>
<path d="M18.7097 5.20996V5.24329" stroke="black" stroke-width="2.5" stroke-linecap="round" stroke-linejoin="round"/>
</svg>
