<svg width="33" height="32" viewBox="0 0 33 32" fill="none" xmlns="http://www.w3.org/2000/svg">
<path d="M8.0438 14.6683L6.0833 19.0794C3.60988 24.6446 2.37316 27.4271 3.72293 28.777C5.07269 30.1267 7.85529 28.89 13.4205 26.4166L17.8316 24.456C21.1881 22.9643 22.8664 22.2183 23.1335 20.78C23.4005 19.3418 22.1019 18.0431 19.5047 15.4459L17.054 12.9952C14.4567 10.3979 13.1581 9.09931 11.7198 9.36636C10.2815 9.63341 9.5356 11.3117 8.0438 14.6683Z" stroke="#F0682F" stroke-width="2" stroke-linecap="round" stroke-linejoin="round"/>
<path d="M9.16667 14L18.5 23.3333M6.5 20.6667L11.8333 26" stroke="#F0682F" stroke-width="2" stroke-linecap="round" stroke-linejoin="round"/>
<path d="M21.8333 10.666L25.8333 6.66602" stroke="#F0682F" stroke-width="2" stroke-linecap="round" stroke-linejoin="round"/>
<path d="M19.4297 2.66602C19.9617 3.55491 20.3875 5.86602 17.8333 7.99935" stroke="#F0682F" stroke-width="2" stroke-linecap="round" stroke-linejoin="round"/>
<path d="M29.8333 13.0697C28.9444 12.5376 26.6333 12.1119 24.5 14.666" stroke="#F0682F" stroke-width="2" stroke-linecap="round" stroke-linejoin="round"/>
<path d="M24.5012 2.66602V2.69268" stroke="#F0682F" stroke-width="2" stroke-linecap="round" stroke-linejoin="round"/>
<path d="M29.8345 8V8.02667" stroke="#F0682F" stroke-width="2" stroke-linecap="round" stroke-linejoin="round"/>
<path d="M28.5012 17.332V17.3587" stroke="#F0682F" stroke-width="2" stroke-linecap="round" stroke-linejoin="round"/>
<path d="M15.1679 4V4.02667" stroke="#F0682F" stroke-width="2" stroke-linecap="round" stroke-linejoin="round"/>
</svg>
