<svg width="33" height="32" viewBox="0 0 33 32" fill="none" xmlns="http://www.w3.org/2000/svg">
<path d="M3.1667 17.3333C3.1667 12.9336 3.1667 10.7337 4.33828 9.36684C5.50985 8 7.39546 8 11.1667 8H21.8334C25.6046 8 27.4902 8 28.6618 9.36684C29.8334 10.7337 29.8334 12.9336 29.8334 17.3333C29.8334 21.7331 29.8334 23.9329 28.6618 25.2999C27.4902 26.6667 25.6046 26.6667 21.8334 26.6667H11.1667C7.39546 26.6667 5.50985 26.6667 4.33828 25.2999C3.1667 23.9329 3.1667 21.7331 3.1667 17.3333Z" stroke="#F0682F" stroke-width="2" stroke-linecap="round" stroke-linejoin="round"/>
<path d="M9.8333 20H9.84527" stroke="#F0682F" stroke-width="2" stroke-linecap="round" stroke-linejoin="round"/>
<path d="M8.5 26.666V29.3327M24.5 26.666V29.3327" stroke="#F0682F" stroke-width="2" stroke-linecap="round" stroke-linejoin="round"/>
<path d="M7.1667 7.99935L25.8334 2.66602" stroke="#F0682F" stroke-width="2" stroke-linecap="round" stroke-linejoin="round"/>
<path d="M12.5 14.666H8.5" stroke="#F0682F" stroke-width="2" stroke-linecap="round" stroke-linejoin="round"/>
<path d="M20.5 21.332C22.7091 21.332 24.5 19.5412 24.5 17.332C24.5 15.1229 22.7091 13.332 20.5 13.332C18.2909 13.332 16.5 15.1229 16.5 17.332C16.5 19.5412 18.2909 21.332 20.5 21.332Z" stroke="#F0682F" stroke-width="2" stroke-linecap="round" stroke-linejoin="round"/>
</svg>
