<svg width="41" height="41" viewBox="0 0 41 41" fill="none" xmlns="http://www.w3.org/2000/svg">
<path d="M3.95837 21.8766C3.95837 16.3769 3.95837 13.627 5.42284 11.9185C6.88731 10.21 9.24432 10.21 13.9584 10.21H27.2917C32.0057 10.21 34.3627 10.21 35.8272 11.9185C37.2917 13.627 37.2917 16.3769 37.2917 21.8766C37.2917 27.3763 37.2917 30.1261 35.8272 31.8348C34.3627 33.5433 32.0057 33.5433 27.2917 33.5433H13.9584C9.24432 33.5433 6.88731 33.5433 5.42284 31.8348C3.95837 30.1261 3.95837 27.3763 3.95837 21.8766Z" stroke="black" stroke-width="2.5" stroke-linecap="round" stroke-linejoin="round"/>
<path d="M12.2916 25.21H12.3066" stroke="black" stroke-width="2.5" stroke-linecap="round" stroke-linejoin="round"/>
<path d="M10.625 33.5435V36.8768M30.625 33.5435V36.8768" stroke="black" stroke-width="2.5" stroke-linecap="round" stroke-linejoin="round"/>
<path d="M8.95837 10.2101L32.2917 3.54346" stroke="black" stroke-width="2.5" stroke-linecap="round" stroke-linejoin="round"/>
<path d="M15.625 18.5435H10.625" stroke="black" stroke-width="2.5" stroke-linecap="round" stroke-linejoin="round"/>
<path d="M25.625 26.8765C28.3864 26.8765 30.625 24.6379 30.625 21.8765C30.625 19.115 28.3864 16.8765 25.625 16.8765C22.8636 16.8765 20.625 19.115 20.625 21.8765C20.625 24.6379 22.8636 26.8765 25.625 26.8765Z" stroke="black" stroke-width="2.5" stroke-linecap="round" stroke-linejoin="round"/>
</svg>
