<svg width="48" height="48" viewBox="0 0 48 48" fill="none" xmlns="http://www.w3.org/2000/svg">
<path d="M39 32V24.0118C39 21.039 39 19.5525 38.4888 18.1921C37.9776 16.8316 36.9988 15.713 35.0412 13.4757L32 10H16L12.9588 13.4757C11.0012 15.713 10.0224 16.8316 9.51118 18.1921C9 19.5525 9 21.039 9 24.0118V32C9 37.6568 9 40.4852 10.7574 42.2426C12.5147 44 15.3431 44 21 44H27C32.6568 44 35.4852 44 37.2426 42.2426C39 40.4852 39 37.6568 39 32Z" stroke="#F0682F" stroke-width="3" stroke-linecap="round" stroke-linejoin="round"/>
<path d="M19 31.3662C19 33.825 22.7078 35.8408 26.265 34.7106C29.8224 33.5802 29.2994 30.2496 28.0926 28.9416C26.8858 27.6338 25.11 27.853 23.0798 27.7502C18.5175 27.5188 18.1954 23.1444 21.8894 21.4138C24.5994 20.144 28.0758 21.7724 28.4762 24M23.942 19V20.9554M23.942 35.4408V37" stroke="#F0682F" stroke-width="3" stroke-linecap="round" stroke-linejoin="round"/>
<path d="M15 4H33C33.9318 4 34.3978 4 34.7654 4.15224C35.2554 4.35522 35.6448 4.74458 35.8478 5.23464C36 5.60218 36 6.06812 36 7C36 7.93188 36 8.39782 35.8478 8.76536C35.6448 9.25542 35.2554 9.64478 34.7654 9.84776C34.3978 10 33.9318 10 33 10H15C14.0681 10 13.6022 10 13.2346 9.84776C12.7446 9.64478 12.3552 9.25542 12.1522 8.76536C12 8.39782 12 7.93188 12 7C12 6.06812 12 5.60218 12.1522 5.23464C12.3552 4.74458 12.7446 4.35522 13.2346 4.15224C13.6022 4 14.0681 4 15 4Z" stroke="#F0682F" stroke-width="3" stroke-linecap="round" stroke-linejoin="round"/>
</svg>
