<svg width="33" height="32" viewBox="0 0 33 32" fill="none" xmlns="http://www.w3.org/2000/svg">
<path d="M11.1667 18.0007H21.8333M11.1667 11.334H16.5" stroke="#F0682F" stroke-width="2" stroke-linecap="round" stroke-linejoin="round"/>
<path d="M8.63175 25.334C6.89827 25.1635 5.59967 24.6428 4.72877 23.7719C3.16667 22.2099 3.16667 19.6956 3.16667 14.6673V14.0007C3.16667 8.97233 3.16667 6.45818 4.72877 4.89608C6.29087 3.33398 8.80502 3.33398 13.8333 3.33398H19.1667C24.1949 3.33398 26.7092 3.33398 28.2712 4.89608C29.8333 6.45818 29.8333 8.97233 29.8333 14.0007V14.6673C29.8333 19.6956 29.8333 22.2099 28.2712 23.7719C26.7092 25.334 24.1949 25.334 19.1667 25.334C18.4193 25.3507 17.8241 25.4075 17.2395 25.5407C15.6416 25.9085 14.162 26.7261 12.6998 27.4392C10.6164 28.4551 9.57467 28.9631 8.92092 28.4875C7.67026 27.556 8.89272 24.6699 9.16667 23.334" stroke="#F0682F" stroke-width="2" stroke-linecap="round"/>
</svg>
