<svg width="41" height="41" viewBox="0 0 41 41" fill="none" xmlns="http://www.w3.org/2000/svg">
<path d="M13.9583 22.7098H27.2916M13.9583 14.3765H20.6249" stroke="black" stroke-width="2.5" stroke-linecap="round" stroke-linejoin="round"/>
<path d="M10.7896 31.8765C8.62275 31.6633 6.9995 31.0125 5.91087 29.9238C3.95825 27.9713 3.95825 24.8285 3.95825 18.5431V17.7098C3.95825 11.4244 3.95825 8.28171 5.91087 6.32908C7.8635 4.37647 11.0062 4.37646 17.2916 4.37646H23.9583C30.2436 4.37646 33.3864 4.37647 35.3389 6.32908C37.2916 8.28171 37.2916 11.4244 37.2916 17.7098V18.5431C37.2916 24.8285 37.2916 27.9713 35.3389 29.9238C33.3864 31.8765 30.2436 31.8765 23.9583 31.8765C23.0241 31.8973 22.2801 31.9683 21.5493 32.1348C19.5519 32.5946 17.7024 33.6166 15.8747 34.508C13.2704 35.7778 11.9683 36.4128 11.1511 35.8183C9.58774 34.654 11.1158 31.0463 11.4583 29.3765" stroke="black" stroke-width="2.5" stroke-linecap="round"/>
</svg>
