<svg width="33" height="32" viewBox="0 0 33 32" fill="none" xmlns="http://www.w3.org/2000/svg">
<path d="M14.5 10.666H25.1667M14.5 15.9993H17.8333M25.1667 15.9993H21.8333M14.5 21.3327H17.8333M25.1667 21.3327H21.8333" stroke="#F0682F" stroke-width="2" stroke-linecap="round" stroke-linejoin="round"/>
<path d="M9.83335 10H8.50002C5.98586 10 4.72878 10 3.94774 10.7811C3.16669 11.5621 3.16669 12.8192 3.16669 15.3333V24C3.16669 25.8409 4.65907 27.3333 6.50002 27.3333C8.34097 27.3333 9.83335 25.8409 9.83335 24V10Z" stroke="#F0682F" stroke-width="2" stroke-linecap="round" stroke-linejoin="round"/>
<path d="M21.8333 4.66602H15.1667C13.9267 4.66602 13.3067 4.66602 12.7981 4.80231C11.4177 5.17218 10.3395 6.25038 9.96963 7.63074C9.83333 8.1394 9.83333 8.75939 9.83333 9.99935V23.9993C9.83333 25.8403 8.34095 27.3327 6.5 27.3327H21.8333C25.6045 27.3327 27.4901 27.3327 28.6617 26.1611C29.8333 24.9895 29.8333 23.1039 29.8333 19.3327V12.666C29.8333 8.89478 29.8333 7.00916 28.6617 5.83759C27.4901 4.66602 25.6045 4.66602 21.8333 4.66602Z" stroke="#F0682F" stroke-width="2" stroke-linecap="round" stroke-linejoin="round"/>
</svg>
