<svg width="41" height="41" viewBox="0 0 41 41" fill="none" xmlns="http://www.w3.org/2000/svg">
<path d="M17.875 13.5435H31.2083M17.875 20.2101H22.0417M31.2083 20.2101H27.0417M17.875 26.8768H22.0417M31.2083 26.8768H27.0417" stroke="black" stroke-width="2.5" stroke-linecap="round" stroke-linejoin="round"/>
<path d="M12.0417 12.71H10.375C7.23234 12.71 5.66099 12.71 4.68469 13.6863C3.70837 14.6626 3.70837 16.2339 3.70837 19.3766V30.21C3.70837 32.5111 5.57386 34.3766 7.87504 34.3766C10.1762 34.3766 12.0417 32.5111 12.0417 30.21V12.71Z" stroke="black" stroke-width="2.5" stroke-linecap="round" stroke-linejoin="round"/>
<path d="M27.0417 6.04346H18.7083C17.1583 6.04346 16.3834 6.04346 15.7476 6.21382C14.0221 6.67616 12.6744 8.02391 12.212 9.74936C12.0417 10.3852 12.0417 11.1602 12.0417 12.7101V30.2101C12.0417 32.5113 10.1762 34.3768 7.875 34.3768H27.0417C31.7557 34.3768 34.1127 34.3768 35.5772 32.9123C37.0417 31.4478 37.0417 29.0908 37.0417 24.3768V16.0435C37.0417 11.3294 37.0417 8.97239 35.5772 7.50792C34.1127 6.04346 31.7557 6.04346 27.0417 6.04346Z" stroke="black" stroke-width="2.5" stroke-linecap="round" stroke-linejoin="round"/>
</svg>
