<svg width="18" height="18" viewBox="0 0 18 18" fill="none" xmlns="http://www.w3.org/2000/svg">
<g clip-path="url(#clip0_120_6640)">
<path d="M4.5 13.4809C4.59653 14.4622 4.81467 15.1227 5.30768 15.6157C6.19197 16.5 7.6152 16.5 10.4617 16.5C13.3082 16.5 14.7314 16.5 15.6157 15.6157C16.5 14.7314 16.5 13.3082 16.5 10.4617C16.5 7.6152 16.5 6.19197 15.6157 5.30768C15.1227 4.81467 14.4622 4.59653 13.4809 4.5" stroke="black" stroke-width="1.125"/>
<path d="M1.5 7.5C1.5 4.67157 1.5 3.25736 2.37868 2.37868C3.25736 1.5 4.67157 1.5 7.5 1.5C10.3284 1.5 11.7427 1.5 12.6213 2.37868C13.5 3.25736 13.5 4.67157 13.5 7.5C13.5 10.3284 13.5 11.7427 12.6213 12.6213C11.7427 13.5 10.3284 13.5 7.5 13.5C4.67157 13.5 3.25736 13.5 2.37868 12.6213C1.5 11.7427 1.5 10.3284 1.5 7.5Z" stroke="black" stroke-width="1.125"/>
<path d="M1.5 8.3389C1.96426 8.27988 2.43363 8.25078 2.90378 8.25175C4.89274 8.215 6.83298 8.75725 8.37832 9.78183C9.8115 10.7321 10.8185 12.0398 11.25 13.5" stroke="black" stroke-width="1.125" stroke-linejoin="round"/>
<path d="M9.75 5.25H9.75675" stroke="black" stroke-width="1.125" stroke-linecap="round" stroke-linejoin="round"/>
</g>
<defs>
<clipPath id="clip0_120_6640">
<rect width="18" height="18" fill="white"/>
</clipPath>
</defs>
</svg>
