<svg width="41" height="41" viewBox="0 0 41 41" fill="none" xmlns="http://www.w3.org/2000/svg">
<path d="M4.29175 20.2103C4.29175 12.7464 4.29175 9.01444 6.61048 6.69569C8.92923 4.37695 12.6612 4.37695 20.1251 4.37695C27.5889 4.37695 31.3209 4.37695 33.6397 6.69569C35.9584 9.01444 35.9584 12.7464 35.9584 20.2103C35.9584 27.6741 35.9584 31.4061 33.6397 33.725C31.3209 36.0436 27.5889 36.0436 20.1251 36.0436C12.6612 36.0436 8.92923 36.0436 6.61048 33.725C4.29175 31.4061 4.29175 27.6741 4.29175 20.2103Z" stroke="black" stroke-width="2.5" stroke-linejoin="round"/>
<path d="M27.625 20.21C27.625 24.3521 24.2672 27.71 20.125 27.71C15.9829 27.71 12.625 24.3521 12.625 20.21C12.625 16.0678 15.9829 12.71 20.125 12.71C24.2672 12.71 27.625 16.0678 27.625 20.21Z" stroke="black" stroke-width="2.5"/>
<path d="M29.3048 11.0435H29.2898" stroke="black" stroke-width="2.5" stroke-linecap="round" stroke-linejoin="round"/>
</svg>
