<svg width="33" height="32" viewBox="0 0 33 32" fill="none" xmlns="http://www.w3.org/2000/svg">
<path d="M3.83335 16.0007C3.83335 10.0295 3.83335 7.04397 5.68834 5.18897C7.54334 3.33398 10.5289 3.33398 16.5 3.33398C22.4711 3.33398 25.4567 3.33398 27.3118 5.18897C29.1667 7.04397 29.1667 10.0295 29.1667 16.0007C29.1667 21.9717 29.1667 24.9573 27.3118 26.8124C25.4567 28.6673 22.4711 28.6673 16.5 28.6673C10.5289 28.6673 7.54334 28.6673 5.68834 26.8124C3.83335 24.9573 3.83335 21.9717 3.83335 16.0007Z" stroke="#F0682F" stroke-width="2" stroke-linejoin="round"/>
<path d="M22.5 16C22.5 19.3137 19.8137 22 16.5 22C13.1863 22 10.5 19.3137 10.5 16C10.5 12.6863 13.1863 10 16.5 10C19.8137 10 22.5 12.6863 22.5 16Z" stroke="#F0682F" stroke-width="2"/>
<path d="M23.8437 8.66797H23.8317" stroke="#F0682F" stroke-width="2" stroke-linecap="round" stroke-linejoin="round"/>
</svg>
