<svg width="33" height="32" viewBox="0 0 33 32" fill="none" xmlns="http://www.w3.org/2000/svg">
<path d="M3.16669 13.3327C3.16669 8.30436 3.16669 5.79022 4.72878 4.22811C6.29089 2.66602 8.80503 2.66602 13.8334 2.66602H19.1667C24.195 2.66602 26.7092 2.66602 28.2712 4.22811C29.8334 5.79022 29.8334 8.30436 29.8334 13.3327C29.8334 18.3609 29.8334 20.8752 28.2712 22.4372C26.7092 23.9993 24.195 23.9993 19.1667 23.9993H13.8334C8.80503 23.9993 6.29089 23.9993 4.72878 22.4372C3.16669 20.8752 3.16669 18.3609 3.16669 13.3327Z" stroke="#F0682F" stroke-width="2" stroke-linecap="round"/>
<path d="M21.8334 29.3333C20.2644 28.4853 18.4428 28 16.5 28C14.5572 28 12.7356 28.4853 11.1667 29.3333" stroke="#F0682F" stroke-width="2" stroke-linecap="round"/>
</svg>
