<svg width="41" height="41" viewBox="0 0 41 41" fill="none" xmlns="http://www.w3.org/2000/svg">
<path d="M4.20837 16.8768C4.20837 10.5914 4.20837 7.44871 6.16099 5.49607C8.11362 3.54346 11.2563 3.54346 17.5417 3.54346H24.2084C30.4937 3.54346 33.6365 3.54346 35.589 5.49607C37.5417 7.44871 37.5417 10.5914 37.5417 16.8768C37.5417 23.1621 37.5417 26.305 35.589 28.2575C33.6365 30.2101 30.4937 30.2101 24.2084 30.2101H17.5417C11.2563 30.2101 8.11362 30.2101 6.16099 28.2575C4.20837 26.305 4.20837 23.1621 4.20837 16.8768Z" stroke="black" stroke-width="2.5" stroke-linecap="round"/>
<path d="M27.5417 36.8766C25.5805 35.8166 23.3035 35.21 20.875 35.21C18.4465 35.21 16.1695 35.8166 14.2084 36.8766" stroke="black" stroke-width="2.5" stroke-linecap="round"/>
</svg>
