<svg width="48" height="48" viewBox="0 0 48 48" fill="none" xmlns="http://www.w3.org/2000/svg">
<path d="M32 18C32 25.732 25.732 32 18 32C10.268 32 4 25.732 4 18C4 10.268 10.268 4 18 4C25.732 4 32 10.268 32 18Z" stroke="#F0682F" stroke-width="3"/>
<path d="M16.0519 31.2134C16.0175 30.8134 16 30.4088 16 30C16 22.268 22.268 16 30 16C30.5734 16 31.1386 16.0345 31.6938 16.1014M37.9938 18.505C41.6242 21.0344 44 25.2398 44 30C44 37.732 37.732 44 30 44C25.2398 44 21.0344 41.6242 18.505 37.9938" stroke="#F0682F" stroke-width="3" stroke-linecap="round" stroke-linejoin="round"/>
<path d="M13 5L31 23M5 13L23 31" stroke="#F0682F" stroke-width="3"/>
</svg>
